<svg version="1.1" id="Layer_1" xmlns="http://www.w3.org/2000/svg" xmlns:xlink="http://www.w3.org/1999/xlink" x="0px" y="0px"
	 width="100%" viewBox="0 0 529 377" enable-background="new 0 0 529 377" xml:space="preserve">
<path fill="#142B3F" opacity="1.000000" stroke="none" 
	d="
M332.000000,378.000000 
	C221.363708,378.000000 111.227417,378.000000 1.045565,378.000000 
	C1.045565,252.398376 1.045565,126.796730 1.045565,1.097540 
	C177.219635,1.097540 353.439362,1.097540 529.829529,1.097540 
	C529.829529,126.666481 529.829529,252.333221 529.829529,378.000000 
	C464.130005,378.000000 398.315002,378.000000 332.000000,378.000000 
M113.781723,335.740417 
	C116.596962,344.271118 119.631989,352.738098 122.132652,361.360046 
	C123.342308,365.530762 125.537109,366.611053 129.651367,366.575439 
	C150.979477,366.390778 172.311539,366.356140 193.638535,366.596832 
	C198.195526,366.648254 200.291107,365.355988 201.763641,360.881378 
	C216.947952,314.740814 232.426224,268.697021 247.620209,222.559555 
	C248.517822,219.833908 248.480835,216.253891 247.525757,213.549225 
	C237.937073,186.395676 227.967499,159.376511 218.410492,132.212097 
	C217.355225,129.212631 217.342667,125.269943 218.309250,122.229759 
	C224.255356,103.527596 230.621185,84.958862 236.849121,66.346321 
	C238.672867,60.896015 240.502319,55.447628 242.328552,50.000214 
	C253.230545,50.000214 263.564636,50.252060 273.876068,49.878029 
	C278.084686,49.725365 279.606018,51.345959 280.804321,55.026691 
	C288.219818,77.803543 295.925354,100.486145 303.292084,123.278412 
	C304.080078,125.716423 303.997803,128.903702 303.146210,131.332062 
	C293.451050,158.978531 283.473236,186.525848 273.765015,214.167816 
	C272.960846,216.457535 272.868378,219.473862 273.623444,221.764175 
	C289.040710,268.529938 304.665710,315.227234 320.111633,361.983643 
	C321.256439,365.449036 322.976410,366.576080 326.530396,366.554413 
	C348.525818,366.420227 370.523102,366.404694 392.518158,366.567474 
	C396.295135,366.595398 397.935333,365.428497 399.159180,361.745453 
	C436.212677,250.238464 473.405518,138.777771 510.564240,27.305727 
	C511.115479,25.652092 511.510742,23.946468 512.069458,21.939461 
	C510.125519,21.758820 508.821472,21.532087 507.517334,21.531651 
	C454.026428,21.513735 400.535522,21.536186 347.044708,21.464939 
	C343.925537,21.460785 342.166412,22.366596 341.219513,25.488838 
	C339.724762,30.417545 337.820618,35.222256 336.084625,40.077618 
	C331.002625,54.291393 325.918030,68.504250 320.560974,83.482048 
	C319.766388,81.251656 319.245728,79.862343 318.774506,78.456444 
	C312.959015,61.105743 307.032959,43.790455 301.436432,26.369339 
	C300.268036,22.732374 298.660339,21.406191 294.821320,21.433374 
	C272.159637,21.593836 249.495193,21.623665 226.834381,21.410789 
	C222.667755,21.371651 221.101044,22.954824 219.905609,26.675606 
	C214.461304,43.620907 208.732452,60.474876 203.083237,77.354095 
	C202.587891,78.834175 201.927979,80.259178 200.872940,82.882133 
	C199.657013,79.743156 198.854767,77.806534 198.151230,75.834686 
	C192.335541,59.534386 186.420822,43.267704 180.817474,26.894552 
	C179.413101,22.790970 177.411530,21.385025 172.970154,21.399645 
	C120.646278,21.571913 68.321632,21.507118 15.997192,21.523451 
	C14.042081,21.524061 12.087029,21.715012 9.099280,21.871271 
	C44.046402,126.709496 78.763802,230.858582 113.781723,335.740417 
z"/>
<path fill="#B18A2A" opacity="1.000000" stroke="none" 
	d="
M113.631462,335.374023 
	C78.763802,230.858582 44.046402,126.709496 9.099280,21.871271 
	C12.087029,21.715012 14.042081,21.524061 15.997192,21.523451 
	C68.321632,21.507118 120.646278,21.571913 172.970154,21.399645 
	C177.411530,21.385025 179.413101,22.790970 180.817474,26.894552 
	C186.420822,43.267704 192.335541,59.534386 198.151230,75.834686 
	C198.854767,77.806534 199.657013,79.743156 200.872940,82.882133 
	C201.927979,80.259178 202.587891,78.834175 203.083237,77.354095 
	C208.732452,60.474876 214.461304,43.620907 219.905609,26.675606 
	C221.101044,22.954824 222.667755,21.371651 226.834381,21.410789 
	C249.495193,21.623665 272.159637,21.593836 294.821320,21.433374 
	C298.660339,21.406191 300.268036,22.732374 301.436432,26.369339 
	C307.032959,43.790455 312.959015,61.105743 318.774506,78.456444 
	C319.245728,79.862343 319.766388,81.251656 320.560974,83.482048 
	C325.918030,68.504250 331.002625,54.291393 336.084625,40.077618 
	C337.820618,35.222256 339.724762,30.417545 341.219513,25.488838 
	C342.166412,22.366596 343.925537,21.460785 347.044708,21.464939 
	C400.535522,21.536186 454.026428,21.513735 507.517334,21.531651 
	C508.821472,21.532087 510.125519,21.758820 512.069458,21.939461 
	C511.510742,23.946468 511.115479,25.652092 510.564240,27.305727 
	C473.405518,138.777771 436.212677,250.238464 399.159180,361.745453 
	C397.935333,365.428497 396.295135,366.595398 392.518158,366.567474 
	C370.523102,366.404694 348.525818,366.420227 326.530396,366.554413 
	C322.976410,366.576080 321.256439,365.449036 320.111633,361.983643 
	C304.665710,315.227234 289.040710,268.529938 273.623444,221.764175 
	C272.868378,219.473862 272.960846,216.457535 273.765015,214.167816 
	C283.473236,186.525848 293.451050,158.978531 303.146210,131.332062 
	C303.997803,128.903702 304.080078,125.716423 303.292084,123.278412 
	C295.925354,100.486145 288.219818,77.803543 280.804321,55.026691 
	C279.606018,51.345959 278.084686,49.725365 273.876068,49.878029 
	C263.564636,50.252060 253.230545,50.000214 242.328552,50.000214 
	C240.502319,55.447628 238.672867,60.896015 236.849121,66.346321 
	C230.621185,84.958862 224.255356,103.527596 218.309250,122.229759 
	C217.342667,125.269943 217.355225,129.212631 218.410492,132.212097 
	C227.967499,159.376511 237.937073,186.395676 247.525757,213.549225 
	C248.480835,216.253891 248.517822,219.833908 247.620209,222.559555 
	C232.426224,268.697021 216.947952,314.740814 201.763641,360.881378 
	C200.291107,365.355988 198.195526,366.648254 193.638535,366.596832 
	C172.311539,366.356140 150.979477,366.390778 129.651367,366.575439 
	C125.537109,366.611053 123.342308,365.530762 122.132652,361.360046 
	C119.631989,352.738098 116.596962,344.271118 113.631462,335.374023 
M409.500000,50.000751 
	C395.505707,50.000999 381.509918,50.111332 367.518188,49.921871 
	C364.140839,49.876141 362.582703,50.872383 361.436798,54.142887 
	C353.296295,77.376686 344.861816,100.507523 336.733215,123.745407 
	C335.936310,126.023727 335.888733,129.028336 336.643005,131.316971 
	C353.989532,183.951355 371.494080,236.533646 388.980713,289.121826 
	C389.457855,290.556732 390.061554,291.949554 390.606232,293.361969 
	C390.973480,293.304077 391.340759,293.246216 391.708038,293.188324 
	C418.631927,212.396088 445.555847,131.603867 472.750000,50.000751 
	C451.373474,50.000751 430.936737,50.000751 409.500000,50.000751 
M177.967087,152.483459 
	C180.276382,145.531906 182.802277,138.641113 184.779022,131.596252 
	C185.483521,129.085464 185.573944,125.949951 184.725677,123.526237 
	C176.700714,100.597046 168.303665,77.797935 160.307129,54.859100 
	C158.972107,51.029491 157.253052,49.881996 153.260239,49.903061 
	C120.262039,50.077156 87.262520,50.001583 54.263405,50.001606 
	C52.662601,50.001610 51.061798,50.001610 48.760891,50.001610 
	C76.033188,131.805573 103.066910,212.893890 130.493774,295.161438 
	C146.516922,247.026993 162.126953,200.133560 177.967087,152.483459 
M171.134811,263.552795 
	C162.935455,288.133087 154.736115,312.713379 146.300842,338.000946 
	C156.354065,338.000946 165.491989,337.816010 174.615829,338.093933 
	C178.157654,338.201813 179.463806,336.857452 180.516891,333.683838 
	C192.874420,296.442810 205.410095,259.260895 217.761383,222.017807 
	C218.428619,220.005844 218.477509,217.382538 217.793839,215.394775 
	C213.356247,202.492737 208.647537,189.683746 203.989410,176.858154 
	C203.531403,175.597092 202.815170,174.429825 201.711700,172.189499 
	C191.334320,203.205597 181.363586,233.006271 171.134811,263.552795 
M335.479858,317.001831 
	C337.485077,322.992218 339.379028,329.024109 341.586121,334.939148 
	C342.046814,336.173859 343.644714,337.821136 344.751770,337.846832 
	C354.548126,338.074341 364.352020,337.978943 375.000122,337.978943 
	C356.480316,282.320923 338.168915,227.289307 319.521851,171.248901 
	C314.200806,185.994385 309.057709,199.683334 304.419830,213.541397 
	C303.408142,216.564331 303.316559,220.480942 304.301361,223.495941 
	C314.420929,254.476379 324.849548,285.355865 335.479858,317.001831 
z"/>
<path fill="#142A3F" opacity="1.000000" stroke="none" 
	d="
M410.000000,50.000751 
	C430.936737,50.000751 451.373474,50.000751 472.750000,50.000751 
	C445.555847,131.603867 418.631927,212.396088 391.708038,293.188324 
	C391.340759,293.246216 390.973480,293.304077 390.606232,293.361969 
	C390.061554,291.949554 389.457855,290.556732 388.980713,289.121826 
	C371.494080,236.533646 353.989532,183.951355 336.643005,131.316971 
	C335.888733,129.028336 335.936310,126.023727 336.733215,123.745407 
	C344.861816,100.507523 353.296295,77.376686 361.436798,54.142887 
	C362.582703,50.872383 364.140839,49.876141 367.518188,49.921871 
	C381.509918,50.111332 395.505707,50.000999 410.000000,50.000751 
z"/>
<path fill="#132A3F" opacity="1.000000" stroke="none" 
	d="
M177.852051,152.861786 
	C162.126953,200.133560 146.516922,247.026993 130.493774,295.161438 
	C103.066910,212.893890 76.033188,131.805573 48.760891,50.001610 
	C51.061798,50.001610 52.662601,50.001610 54.263405,50.001606 
	C87.262520,50.001583 120.262039,50.077156 153.260239,49.903061 
	C157.253052,49.881996 158.972107,51.029491 160.307129,54.859100 
	C168.303665,77.797935 176.700714,100.597046 184.725677,123.526237 
	C185.573944,125.949951 185.483521,129.085464 184.779022,131.596252 
	C182.802277,138.641113 180.276382,145.531906 177.852051,152.861786 
z"/>
<path fill="#142B3F" opacity="1.000000" stroke="none" 
	d="
M171.263840,263.179871 
	C181.363586,233.006271 191.334320,203.205597 201.711700,172.189499 
	C202.815170,174.429825 203.531403,175.597092 203.989410,176.858154 
	C208.647537,189.683746 213.356247,202.492737 217.793839,215.394775 
	C218.477509,217.382538 218.428619,220.005844 217.761383,222.017807 
	C205.410095,259.260895 192.874420,296.442810 180.516891,333.683838 
	C179.463806,336.857452 178.157654,338.201813 174.615829,338.093933 
	C165.491989,337.816010 156.354065,338.000946 146.300842,338.000946 
	C154.736115,312.713379 162.935455,288.133087 171.263840,263.179871 
z"/>
<path fill="#152B3F" opacity="1.000000" stroke="none" 
	d="
M335.335938,316.632690 
	C324.849548,285.355865 314.420929,254.476379 304.301361,223.495941 
	C303.316559,220.480942 303.408142,216.564331 304.419830,213.541397 
	C309.057709,199.683334 314.200806,185.994385 319.521851,171.248901 
	C338.168915,227.289307 356.480316,282.320923 375.000122,337.978943 
	C364.352020,337.978943 354.548126,338.074341 344.751770,337.846832 
	C343.644714,337.821136 342.046814,336.173859 341.586121,334.939148 
	C339.379028,329.024109 337.485077,322.992218 335.335938,316.632690 
z"/>
</svg>